# xmcd
#
# Track frame offsets: 
#        150
#        19267
#        37432
#        70950
#        104437
#        124707
#        149645
#        164682
#        186642
#        215000
#        230457
#        251495
#        306120
#
# Disc length: 4473 seconds
#
# Revision: 1
# Processed by: cddbd v1.5.2PL0 Copyright (c) Steve Scherf et al.
# Submitted via: ExactAudioCopyFreeDBPlugin 1.0
#
DISCID=d211770d
DTITLE=Grand Funk Railroad - Caught In The Act
DYEAR=1975
DGENRE=Rock
TTITLE0=Foot Stompin' Music
TTITLE1=Rock and Roll Soul
TTITLE2=Closer To Home
TTITLE3=Heartbreaker
TTITLE4=Some Kind Of Wonderful
TTITLE5=Shinin' On
TTITLE6=The Loco-Motion
TTITLE7=Black Licorice
TTITLE8=The Railroad
TTITLE9=We're An American Band
TTITLE10=T.N.U.C.
TTITLE11=Inside Looking Out
TTITLE12=Gimme Shelter
EXTD=
EXTT0=
EXTT1=
EXTT2=
EXTT3=
EXTT4=
EXTT5=
EXTT6=
EXTT7=
EXTT8=
EXTT9=
EXTT10=
EXTT11=
EXTT12=
PLAYORDER=
